REM DIRINDEX 1\6,1\2\7,1\2\8,1\2\9,1\3\10,1\3\11,1\4\12,1\4\13,1\4\14,1\5\15,1\5\16,1\5\17
REM DIRNAME folder01,folder02,folder03,folder04,folder05,folder06,folder07,folder08,folder09,folder10,folder11,folder12,folder13,folder14,folder15,folder16,folder17
TITLE ""
FILE "P2Q_k_041-050.mp3" MP3
  TRACK 01 AUDIO
    TITLE "15:cjc040_1409"
    INDEX 01 00:00:00
  TRACK 02 AUDIO
    TITLE "0:"
    INDEX 01 00:01:44
  TRACK 03 AUDIO
    TITLE "16:cjc040_1410"
    INDEX 01 00:02:24
  TRACK 04 AUDIO
    TITLE "0:"
    INDEX 01 00:04:03
  TRACK 05 AUDIO
    TITLE "17:cjc040_1411"
    INDEX 01 00:04:56
  TRACK 06 AUDIO
    TITLE "17:cjc040_1412"
    INDEX 01 00:06:35
  TRACK 07 AUDIO
    TITLE "0:"
    INDEX 01 00:09:18
  TRACK 08 AUDIO
    TITLE "15:cjc040_1413"
    INDEX 01 00:09:73
  TRACK 09 AUDIO
    TITLE "0:"
    INDEX 01 00:11:48
  TRACK 10 AUDIO
    TITLE "16:cjc040_1414"
    INDEX 01 00:12:30
  TRACK 11 AUDIO
    TITLE "0:"
    INDEX 01 00:14:00
  TRACK 12 AUDIO
    TITLE "17:cjc040_1415"
    INDEX 01 00:14:51
  TRACK 13 AUDIO
    TITLE "17:cjc040_1416"
    INDEX 01 00:19:15
  TRACK 14 AUDIO
    TITLE "0:"
    INDEX 01 00:22:42
  TRACK 15 AUDIO
    TITLE "15:cjc040_1417"
    INDEX 01 00:23:16
  TRACK 16 AUDIO
    TITLE "0:"
    INDEX 01 00:25:27
  TRACK 17 AUDIO
    TITLE "16:cjc040_1418"
    INDEX 01 00:26:05
  TRACK 18 AUDIO
    TITLE "0:"
    INDEX 01 00:28:00
  TRACK 19 AUDIO
    TITLE "17:cjc040_1419"
    INDEX 01 00:28:55
  TRACK 20 AUDIO
    TITLE "17:cjc040_1420"
    INDEX 01 00:33:71
  TRACK 21 AUDIO
    TITLE "0:"
    INDEX 01 00:35:72
  TRACK 22 AUDIO
    TITLE "15:cjc040_1421"
    INDEX 01 00:36:54
  TRACK 23 AUDIO
    TITLE "0:"
    INDEX 01 00:38:39
  TRACK 24 AUDIO
    TITLE "16:cjc040_1422"
    INDEX 01 00:39:21
  TRACK 25 AUDIO
    TITLE "0:"
    INDEX 01 00:41:45
  TRACK 26 AUDIO
    TITLE "17:cjc040_1423"
    INDEX 01 00:42:27
  TRACK 27 AUDIO
    TITLE "17:cjc040_1424"
    INDEX 01 00:45:26
  TRACK 28 AUDIO
    TITLE "0:"
    INDEX 01 00:47:27
  TRACK 29 AUDIO
    TITLE "15:cjc040_1425"
    INDEX 01 00:48:02
  TRACK 30 AUDIO
    TITLE "0:"
    INDEX 01 00:49:72
  TRACK 31 AUDIO
    TITLE "16:cjc040_1426"
    INDEX 01 00:50:52
  TRACK 32 AUDIO
    TITLE "0:"
    INDEX 01 00:52:51
  TRACK 33 AUDIO
    TITLE "17:cjc040_1427"
    INDEX 01 00:53:33
  TRACK 34 AUDIO
    TITLE "17:cjc040_1428"
    INDEX 01 00:56:39
  TRACK 35 AUDIO
    TITLE "0:"
    INDEX 01 00:59:18
  TRACK 36 AUDIO
    TITLE "15:cjc040_1429"
    INDEX 01 00:59:69
  TRACK 37 AUDIO
    TITLE "0:"
    INDEX 01 01:01:38
  TRACK 38 AUDIO
    TITLE "16:cjc040_1430"
    INDEX 01 01:02:18
  TRACK 39 AUDIO
    TITLE "0:"
    INDEX 01 01:03:57
  TRACK 40 AUDIO
    TITLE "17:cjc040_1431"
    INDEX 01 01:04:43
  TRACK 41 AUDIO
    TITLE "17:cjc040_1432"
    INDEX 01 01:07:02
  TRACK 42 AUDIO
    TITLE "0:"
    INDEX 01 01:10:30
  TRACK 43 AUDIO
    TITLE "15:cjc040_1433"
    INDEX 01 01:11:05
  TRACK 44 AUDIO
    TITLE "0:"
    INDEX 01 01:12:44
  TRACK 45 AUDIO
    TITLE "16:cjc040_1434"
    INDEX 01 01:13:22
  TRACK 46 AUDIO
    TITLE "0:"
    INDEX 01 01:14:72
  TRACK 47 AUDIO
    TITLE "17:cjc040_1435"
    INDEX 01 01:15:50
  TRACK 48 AUDIO
    TITLE "17:cjc040_1436"
    INDEX 01 01:19:66
  TRACK 49 AUDIO
    TITLE "0:"
    INDEX 01 01:23:26
  TRACK 50 AUDIO
    TITLE "15:cjc040_1437"
    INDEX 01 01:24:04
  TRACK 51 AUDIO
    TITLE "0:"
    INDEX 01 01:25:45
  TRACK 52 AUDIO
    TITLE "16:cjc040_1438"
    INDEX 01 01:26:21
  TRACK 53 AUDIO
    TITLE "0:"
    INDEX 01 01:28:47
  TRACK 54 AUDIO
    TITLE "17:cjc040_1439"
    INDEX 01 01:29:29
  TRACK 55 AUDIO
    TITLE "17:cjc040_1440"
    INDEX 01 01:31:36
  TRACK 56 AUDIO
    TITLE "0:"
    INDEX 01 01:34:42
  TRACK 57 AUDIO
    TITLE "15:cjc040_1441"
    INDEX 01 01:35:27
  TRACK 58 AUDIO
    TITLE "0:"
    INDEX 01 01:36:68
  TRACK 59 AUDIO
    TITLE "16:cjc040_1442"
    INDEX 01 01:37:52
  TRACK 60 AUDIO
    TITLE "0:"
    INDEX 01 01:39:00
  TRACK 61 AUDIO
    TITLE "17:cjc040_1443"
    INDEX 01 01:39:55
  TRACK 62 AUDIO
    TITLE "17:cjc040_1444"
    INDEX 01 01:44:19
  TRACK 63 AUDIO
    TITLE "0:"
    INDEX 01 01:48:54
  TRACK 64 AUDIO
    TITLE "15:cjc040_1445"
    INDEX 01 01:49:33
  TRACK 65 AUDIO
    TITLE "0:"
    INDEX 01 01:51:42
  TRACK 66 AUDIO
    TITLE "16:cjc040_1446"
    INDEX 01 01:52:22
  TRACK 67 AUDIO
    TITLE "0:"
    INDEX 01 01:53:67
  TRACK 68 AUDIO
    TITLE "17:cjc040_1447"
    INDEX 01 01:54:44
  TRACK 69 AUDIO
    TITLE "17:cjc040_1448"
    INDEX 01 01:59:06
  TRACK 70 AUDIO
    TITLE "0:"
    INDEX 01 02:03:30
